<svg width="450" height="450" viewBox="0 0 450 450" fill="none" xmlns="http://www.w3.org/2000/svg">
<path d="M153.79 292.619V307.459H149.693V292.619H144.031V288.84H159.459V292.619H153.79Z" fill="white"/>
<path d="M172.469 307.459L170.768 303.286H162.891L161.191 307.459H157.018L165 288.704H168.78L176.763 307.459H172.469ZM166.83 293.632L164.358 299.672H169.302L166.83 293.632Z" fill="white"/>
<path d="M178.025 307.459V288.84H182.123V303.739H191.406V307.466H178.025V307.459Z" fill="white"/>
<path d="M192.902 307.459V288.84H206.948V292.483H196.977V296.263H205.754V299.907H196.977V303.815H207.084V307.459H192.902Z" fill="white"/>
<path d="M222.188 307.459L213.169 295.62V307.459H209.125V288.84H212.905L221.628 300.307V288.84H225.673V307.459H222.188Z" fill="white"/>
<path d="M236.982 292.619V307.459H232.884V292.619H227.222V288.84H242.651V292.619H236.982Z" fill="white"/>
<path d="M259.297 307.776C253.817 307.776 249.75 303.55 249.75 298.198V298.145C249.75 292.854 253.741 288.515 259.456 288.515C262.964 288.515 265.065 289.686 266.796 291.387L264.188 294.396C262.752 293.096 261.285 292.294 259.426 292.294C256.289 292.294 254.028 294.902 254.028 298.092V298.145C254.028 301.335 256.236 303.996 259.426 303.996C261.558 303.996 262.858 303.142 264.317 301.812L266.925 304.442C265.02 306.506 262.888 307.776 259.297 307.776Z" fill="white"/>
<path d="M277.123 307.776C271.377 307.776 267.257 303.49 267.257 298.198V298.145C267.257 292.854 271.43 288.515 277.175 288.515C282.921 288.515 287.041 292.801 287.041 298.092V298.145C287.048 303.445 282.868 307.776 277.123 307.776ZM282.762 298.153C282.762 294.963 280.418 292.302 277.123 292.302C273.827 292.302 271.536 294.91 271.536 298.1V298.153C271.536 301.343 273.88 304.004 277.175 304.004C280.471 304.004 282.762 301.396 282.762 298.206V298.153Z" fill="white"/>
<path d="M296.361 307.459H289.097V288.84H296.361C302.212 288.84 306.257 292.854 306.257 298.1V298.153C306.257 303.392 302.212 307.459 296.361 307.459ZM301.97 298.153C301.97 294.857 299.71 292.544 296.361 292.544H293.194V303.77H296.361C299.71 303.77 301.97 301.509 301.97 298.213V298.153Z" fill="white"/>
<path d="M308.305 307.459V288.84H322.351V292.483H312.372V296.263H321.149V299.907H312.372V303.815H322.479V307.459H308.305Z" fill="white"/>
<path d="M269.321 242.099C256.636 238.887 245.857 232.779 236.74 225.083C233.973 222.747 231.35 220.268 228.878 217.682C219.444 207.779 212.141 196.327 206.593 185.381C214.213 178.116 224.501 173.626 235.833 173.626C246.439 173.626 256.122 177.564 263.576 184.013L271.317 176.498C261.883 168.032 249.47 162.838 235.833 162.838C222.906 162.838 211.045 167.48 201.815 175.168C194.188 157.418 191.285 143.138 191.217 142.768L180.626 144.809C180.709 145.232 184.209 162.649 193.794 183.536C186.802 192.547 182.591 203.826 182.591 216.087C182.591 245.448 206.479 269.329 235.833 269.329C250.392 269.329 263.591 263.447 273.214 253.945C276.193 251.005 278.786 247.693 281.016 244.125C276.956 243.717 273.055 243.044 269.321 242.099ZM235.848 258.541C212.436 258.541 193.394 239.491 193.394 216.087C193.394 208.226 195.578 200.878 199.328 194.55C211.567 217.131 230.904 240.905 260.325 250.717C253.393 255.623 244.964 258.541 235.848 258.541Z" fill="url(#paint0_linear_79_356)"/>
<path d="M263.583 184.013C263.583 184.013 235.364 157.131 206.6 185.373C206.6 185.373 232.144 159.565 263.583 184.013Z" fill="url(#paint1_linear_79_356)"/>
<path d="M260.318 250.717C260.318 250.717 230.828 275.028 201.566 242.863C201.566 242.863 183.136 223.601 199.32 194.55C199.32 194.55 184.36 218.332 202.904 242.84C202.904 242.84 225.877 272.64 260.318 250.717Z" fill="url(#paint2_linear_79_356)"/>
<path d="M281.023 244.118C281.023 244.118 233.595 246.9 206.6 185.373C206.6 185.373 230.526 239.635 281.023 244.118Z" fill="url(#paint3_linear_79_356)"/>
<path d="M191.224 142.768C191.224 142.768 195.027 162.884 201.104 175.342L201.49 174.979C201.498 174.979 195.934 162.733 191.224 142.768Z" fill="url(#paint4_linear_79_356)" stroke="url(#paint5_linear_79_356)" stroke-miterlimit="10"/>
<defs>
<linearGradient id="paint0_linear_79_356" x1="180.635" y1="206.045" x2="281.024" y2="206.045" gradientUnits="userSpaceOnUse">
<stop stop-color="#ED4C9A"/>
<stop offset="0.5075" stop-color="#BF3969"/>
<stop offset="0.6461" stop-color="#AD3962"/>
<stop offset="0.9222" stop-color="#7F3A50"/>
<stop offset="1" stop-color="#713A4B"/>
</linearGradient>
<linearGradient id="paint1_linear_79_356" x1="206.603" y1="178.917" x2="263.587" y2="178.917" gradientUnits="userSpaceOnUse">
<stop offset="0.3408" stop-color="#ED4C9A"/>
<stop offset="0.6133" stop-color="#CC3E77"/>
<stop offset="0.7645" stop-color="#BF3969"/>
<stop offset="0.8475" stop-color="#BD3968"/>
<stop offset="0.8935" stop-color="#B53965"/>
<stop offset="0.9305" stop-color="#A73960"/>
<stop offset="0.9626" stop-color="#933A58"/>
<stop offset="0.9913" stop-color="#7A3A4F"/>
<stop offset="1" stop-color="#713A4B"/>
</linearGradient>
<linearGradient id="paint2_linear_79_356" x1="192.664" y1="227.032" x2="260.32" y2="227.032" gradientUnits="userSpaceOnUse">
<stop stop-color="#D44D91"/>
<stop offset="0.118" stop-color="#CE4785"/>
<stop offset="0.3834" stop-color="#C33D71"/>
<stop offset="0.5587" stop-color="#BF3969"/>
<stop offset="0.7608" stop-color="#C73C72"/>
<stop offset="1" stop-color="#D74182"/>
</linearGradient>
<linearGradient id="paint3_linear_79_356" x1="206.603" y1="214.758" x2="281.024" y2="214.758" gradientUnits="userSpaceOnUse">
<stop stop-color="#ED4C9A"/>
<stop offset="0.1345" stop-color="#E84A94"/>
<stop offset="0.3068" stop-color="#D94484"/>
<stop offset="0.4989" stop-color="#C03A6A"/>
<stop offset="0.5075" stop-color="#BF3969"/>
<stop offset="0.6461" stop-color="#AD3962"/>
<stop offset="0.9222" stop-color="#7F3A50"/>
<stop offset="1" stop-color="#713A4B"/>
</linearGradient>
<linearGradient id="paint4_linear_79_356" x1="191.227" y1="159.053" x2="201.496" y2="159.053" gradientUnits="userSpaceOnUse">
<stop stop-color="#ED4C9A"/>
<stop offset="0.1345" stop-color="#E84A94"/>
<stop offset="0.3068" stop-color="#D94484"/>
<stop offset="0.4989" stop-color="#C03A6A"/>
<stop offset="0.5075" stop-color="#BF3969"/>
<stop offset="0.6461" stop-color="#AD3962"/>
<stop offset="0.9222" stop-color="#7F3A50"/>
<stop offset="1" stop-color="#713A4B"/>
</linearGradient>
<linearGradient id="paint5_linear_79_356" x1="190.855" y1="159.323" x2="201.952" y2="159.323" gradientUnits="userSpaceOnUse">
<stop stop-color="#ED4C9A"/>
<stop offset="0.2651" stop-color="#E84A94"/>
<stop offset="0.6045" stop-color="#D94484"/>
<stop offset="0.983" stop-color="#C03A6A"/>
<stop offset="1" stop-color="#BF3969"/>
</linearGradient>
</defs>
</svg>
